<svg width="42" height="30" viewBox="0 0 42 30" fill="none" xmlns="http://www.w3.org/2000/svg">
<g id="fa6-solid:dog" clip-path="url(#clip0_1336_970)">
<path id="Vector" d="M22.6799 9.28711L24.3241 1.16016C24.4594 0.492187 25.1641 0 25.9898 0C26.5236 0 27.0219 0.205078 27.3422 0.556641L28.5451 1.875H32.2537C33.1576 1.875 34.0261 2.17383 34.6667 2.70117L35.9479 3.75H39.934C40.8807 3.75 41.6424 4.37695 41.6424 5.15625V6.5625C41.6424 9.15234 39.0941 11.25 35.9479 11.25H31.0151L30.6521 13.0371L22.6799 9.28711ZM30.2535 15.0059V28.125C30.2535 29.1621 29.2356 30 27.9757 30H25.6979C24.438 30 23.4201 29.1621 23.4201 28.125V21.375C21.7118 22.0957 19.7757 22.5 17.7257 22.5C15.6757 22.5 13.7396 22.0957 12.0313 21.375V28.125C12.0313 29.1621 11.0134 30 9.75348 30H7.47571C6.21581 30 5.19793 29.1621 5.19793 28.125V14.6367C3.14793 13.998 1.53925 12.5684 0.984039 10.7402L0.713553 9.83203C0.407476 8.83008 1.14775 7.81055 2.37206 7.55859C3.59636 7.30664 4.82779 7.91602 5.13386 8.92383L5.41147 9.83203C5.6606 10.6641 6.57171 11.25 7.61807 11.25H22.267L30.2535 15.0059ZM33.6701 4.6875C33.6701 4.43886 33.5502 4.2004 33.3366 4.02459C33.123 3.84877 32.8333 3.75 32.5313 3.75C32.2292 3.75 31.9395 3.84877 31.7259 4.02459C31.5124 4.2004 31.3924 4.43886 31.3924 4.6875C31.3924 4.93614 31.5124 5.1746 31.7259 5.35041C31.9395 5.52623 32.2292 5.625 32.5313 5.625C32.8333 5.625 33.123 5.52623 33.3366 5.35041C33.5502 5.1746 33.6701 4.93614 33.6701 4.6875Z" fill="black"/>
</g>
<defs>
<clipPath id="clip0_1336_970">
<rect width="41" height="30" fill="white" transform="translate(0.640625)"/>
</clipPath>
</defs>
</svg>
