<svg width="17" height="17" viewBox="0 0 17 17" fill="none" xmlns="http://www.w3.org/2000/svg">
<path d="M13.4577 2.83317H12.041V2.12484C12.041 1.93698 11.9664 1.75681 11.8336 1.62397C11.7007 1.49113 11.5205 1.4165 11.3327 1.4165C11.1448 1.4165 10.9647 1.49113 10.8318 1.62397C10.699 1.75681 10.6243 1.93698 10.6243 2.12484V2.83317H6.37435V2.12484C6.37435 1.93698 6.29972 1.75681 6.16688 1.62397C6.03404 1.49113 5.85388 1.4165 5.66602 1.4165C5.47815 1.4165 5.29799 1.49113 5.16515 1.62397C5.03231 1.75681 4.95768 1.93698 4.95768 2.12484V2.83317H3.54102C2.97743 2.83317 2.43693 3.05705 2.03841 3.45557C1.6399 3.85408 1.41602 4.39459 1.41602 4.95817V13.4582C1.41602 14.0218 1.6399 14.5623 2.03841 14.9608C2.43693 15.3593 2.97743 15.5832 3.54102 15.5832H13.4577C14.0213 15.5832 14.5618 15.3593 14.9603 14.9608C15.3588 14.5623 15.5827 14.0218 15.5827 13.4582V4.95817C15.5827 4.39459 15.3588 3.85408 14.9603 3.45557C14.5618 3.05705 14.0213 2.83317 13.4577 2.83317ZM14.166 13.4582C14.166 13.646 14.0914 13.8262 13.9586 13.959C13.8257 14.0919 13.6455 14.1665 13.4577 14.1665H3.54102C3.35315 14.1665 3.17299 14.0919 3.04015 13.959C2.90731 13.8262 2.83268 13.646 2.83268 13.4582V8.49984H14.166V13.4582ZM14.166 7.08317H2.83268V4.95817C2.83268 4.77031 2.90731 4.59014 3.04015 4.4573C3.17299 4.32447 3.35315 4.24984 3.54102 4.24984H4.95768V4.95817C4.95768 5.14603 5.03231 5.3262 5.16515 5.45904C5.29799 5.59188 5.47815 5.6665 5.66602 5.6665C5.85388 5.6665 6.03404 5.59188 6.16688 5.45904C6.29972 5.3262 6.37435 5.14603 6.37435 4.95817V4.24984H10.6243V4.95817C10.6243 5.14603 10.699 5.3262 10.8318 5.45904C10.9647 5.59188 11.1448 5.6665 11.3327 5.6665C11.5205 5.6665 11.7007 5.59188 11.8336 5.45904C11.9664 5.3262 12.041 5.14603 12.041 4.95817V4.24984H13.4577C13.6455 4.24984 13.8257 4.32447 13.9586 4.4573C14.0914 4.59014 14.166 4.77031 14.166 4.95817V7.08317Z" fill="black"/>
</svg>
